<?xml version="1.0" encoding="UTF-8" standalone="no"?>
<!DOCTYPE svg PUBLIC "-//W3C//DTD SVG 1.1//EN"
 "http://www.w3.org/Graphics/SVG/1.1/DTD/svg11.dtd">
<!-- Generated by graphviz version 2.40.1 (20161225.0304)
 -->
<!-- Title: G Pages: 1 -->
<svg width="96pt" height="95pt"
 viewBox="0.00 0.00 95.61 95.00" xmlns="http://www.w3.org/2000/svg" xmlns:xlink="http://www.w3.org/1999/xlink">
<g id="graph0" class="graph" transform="scale(1 1) rotate(0) translate(4 91)">
<title>G</title>
<polygon fill="#ffffff" stroke="transparent" points="-4,4 -4,-91 91.6064,-91 91.6064,4 -4,4"/>
<g id="clust1" class="cluster">
<title>cluster_Global</title>
<path fill="none" stroke="#c0c0c0" d="M20,-8C20,-8 67.6064,-8 67.6064,-8 73.6064,-8 79.6064,-14 79.6064,-20 79.6064,-20 79.6064,-67 79.6064,-67 79.6064,-73 73.6064,-79 67.6064,-79 67.6064,-79 20,-79 20,-79 14,-79 8,-73 8,-67 8,-67 8,-20 8,-20 8,-14 14,-8 20,-8"/>
<text text-anchor="middle" x="43.8032" y="-66.2" font-family="Times,serif" font-size="11.00" fill="#c0c0c0">Global</text>
</g>
<!-- \\PdoGsb -->
<g id="node1" class="node">
<title>\\PdoGsb</title>
<polygon fill="none" stroke="#000000" points="71.4111,-52 16.1954,-52 16.1954,-16 71.4111,-16 71.4111,-52"/>
<text text-anchor="middle" x="43.8032" y="-30.7" font-family="Courier,monospace" font-size="11.00" fill="#000000">PdoGsb</text>
</g>
</g>
</svg>
